HIERARCHY
ROOT Hips
{
	OFFSET	0.00	0.00	0.00
	CHANNELS 6 Xposition Yposition Zposition Zrotation Xrotation Yrotation
	JOINT LeftUpLeg
	{
		OFFSET	 0.126116	-0.014019	-0.065224
		CHANNELS 3 Zrotation Xrotation Yrotation
		JOINT LeftLeg
		{
			OFFSET	 0.000000	 0.000000	 0.569914
			CHANNELS 3 Zrotation Xrotation Yrotation
			JOINT LeftFoot
			{
				OFFSET	 0.000000	 0.000000	 0.544423
				CHANNELS 3 Zrotation Xrotation Yrotation
				JOINT LeftToeBase
				{
					OFFSET	 0.000000	 0.000000	 0.207117
					CHANNELS 3 Zrotation Xrotation Yrotation
					End Site
					{
						OFFSET	 0.000000	 0.000000	 0.207117
					}
				}
			}
		}
	}
	JOINT RightUpLeg
	{
		OFFSET	-0.124023	-0.008373	-0.065224
		CHANNELS 3 Zrotation Xrotation Yrotation
		JOINT RightLeg
		{
			OFFSET	 0.000000	 0.000000	 0.570047
			CHANNELS 3 Zrotation Xrotation Yrotation
			JOINT RightFoot
			{
				OFFSET	 0.000000	 0.000000	 0.544354
				CHANNELS 3 Zrotation Xrotation Yrotation
				JOINT RightToeBase
				{
					OFFSET	 0.000000	 0.000000	 0.207540
					CHANNELS 3 Zrotation Xrotation Yrotation
					End Site
					{
						OFFSET	 0.000000	 0.000000	 0.207540
					}
				}
			}
		}
	}
	JOINT Spine
	{
		OFFSET	 0.000184	-0.007763	 0.117403
		CHANNELS 3 Zrotation Xrotation Yrotation
		JOINT Spine1
		{
			OFFSET	 0.000000	 0.000000	 0.137269
			CHANNELS 3 Zrotation Xrotation Yrotation
			JOINT Spine2
			{
				OFFSET	 0.000000	 0.000000	 0.156879
				CHANNELS 3 Zrotation Xrotation Yrotation
				JOINT LeftShoulder
				{
					OFFSET	 0.080501	-0.002496	 0.160144
					CHANNELS 3 Zrotation Xrotation Yrotation
					JOINT LeftArm
					{
						OFFSET	 0.000000	 0.000000	 0.164363
						CHANNELS 3 Zrotation Xrotation Yrotation
						JOINT LeftForeArm
						{
							OFFSET	 0.000000	 0.000000	 0.364576
							CHANNELS 3 Zrotation Xrotation Yrotation
							JOINT LeftHand
							{
								OFFSET	 0.000000	 0.000000	 0.360812
								CHANNELS 3 Zrotation Xrotation Yrotation
								JOINT LeftHandIndex1
								{
									OFFSET	 0.000000	 0.000000	 0.086006
									CHANNELS 3 Zrotation Xrotation Yrotation
									JOINT LeftHandIndex2
									{
										OFFSET	 0.000000	 0.000000	 0.047236
										CHANNELS 3 Zrotation Xrotation Yrotation
										JOINT LeftHandIndex3
										{
											OFFSET	-0.004284	-0.000551	 0.038166
											CHANNELS 3 Zrotation Xrotation Yrotation
											End Site
											{
												OFFSET	-0.004284	-0.000551	 0.038166
											}
										}
									}
								}
							}
						}
					}
				}
				JOINT Neck
				{
					OFFSET	 0.000000	 0.000000	 0.176489
					CHANNELS 3 Zrotation Xrotation Yrotation
					JOINT Head
					{
						OFFSET	 0.000000	-0.001747	 0.077940
						CHANNELS 3 Zrotation Xrotation Yrotation
						End Site
						{
							OFFSET	 0.000000	-0.001747	 0.077940
						}
					}
				}
				JOINT RightShoulder
				{
					OFFSET	-0.080363	 0.000306	 0.159706
					CHANNELS 3 Zrotation Xrotation Yrotation
					JOINT RightArm
					{
						OFFSET	 0.000000	 0.000000	 0.164196
						CHANNELS 3 Zrotation Xrotation Yrotation
						JOINT RightForeArm
						{
							OFFSET	 0.000000	 0.000000	 0.365611
							CHANNELS 3 Zrotation Xrotation Yrotation
							JOINT RightHand
							{
								OFFSET	 0.000000	 0.000000	 0.360648
								CHANNELS 3 Zrotation Xrotation Yrotation
								JOINT RightHandIndex1
								{
									OFFSET	 0.000000	 0.000000	 0.069977
									CHANNELS 3 Zrotation Xrotation Yrotation
									JOINT RightHandIndex2
									{
										OFFSET	 0.000000	 0.000000	 0.052305
										CHANNELS 3 Zrotation Xrotation Yrotation
										JOINT RightHandIndex3
										{
											OFFSET	 0.009002	-0.000782	 0.042196
											CHANNELS 3 Zrotation Xrotation Yrotation
											End Site
											{
												OFFSET	 0.009002	-0.000782	 0.042196
											}
										}
									}
								}
							}
						}
					}
				}
			}
		}
	}
}
MOTION
Frames:    5
Frame Time: 0.03333334
 6.921533	-0.073836	 1.185383	 179.353900	 0.665164	 3.699234	 5.051324	-3.994664	 176.480900	-11.235430	-33.760170	-5.155056	 171.926500	 86.566240	 179.425900	-2.377476	 30.180920	-0.037799	 1.762573	-12.670650	 178.961700	 3.659847	-47.641010	 5.722300	-175.405600	 82.092840	-178.653200	 2.403713	 22.120390	-0.130683	 6.109427	 0.073762	-1.542710	 11.268140	-2.598520	 0.635124	 13.987930	-4.589755	 1.488902	-91.809840	 77.615760	 179.126000	 36.759130	 69.875430	-39.784840	-7.979817	-4.003341	-19.899680	 4.901102	-12.718720	-5.465466	-3.812334	 37.924440	-2.927599	-2.450526	 36.184240	 0.754587	-1.378229	 35.397820	-2.634230	 0.527374	 6.066999	-3.201303	 3.872319	-13.808730	-0.610461	 89.765400	 79.259790	-179.645800	-36.408510	 70.339450	 39.109180	 4.231910	-7.819066	 30.688300	-9.517920	-13.594080	 9.860345	 6.437017	 35.671460	-0.771858	 2.830251	 35.756010	-7.813440	-2.350882	 35.473990	 5.254307
 6.918380	-0.086148	 1.184367	 179.705800	 0.794468	 3.739348	 5.003370	-4.342903	 176.542100	-10.974160	-34.231980	-5.098721	 171.955100	 86.130520	 179.603300	-2.375588	 30.532610	-0.045617	 1.865868	-12.930570	 178.968700	 3.922625	-48.236560	 6.061555	-176.091400	 81.521130	-177.802700	 2.403476	 22.254160	-0.127974	 6.081079	 0.011197	-1.623553	 11.207050	-2.772033	 0.595187	 13.871070	-4.790833	 1.500601	-91.808220	 77.618740	 179.165300	 36.588550	 69.754810	-39.632190	-8.110465	-4.043044	-20.575500	 4.734145	-12.739650	-5.470191	-3.812334	 37.924440	-2.927599	-2.450526	 36.184240	 0.754587	-1.378229	 35.397820	-2.634230	 0.466241	 5.687105	-3.499346	 3.806748	-13.478570	-0.333512	 89.764400	 79.253360	-179.622200	-36.269480	 70.487000	 39.088380	 4.247338	-7.729079	 29.998090	-9.619154	-13.630890	 9.859800	 6.437017	 35.671460	-0.771858	 2.830251	 35.756010	-7.813440	-2.350882	 35.473990	 5.254307
 6.913712	-0.086151	 1.183268	 179.630400	 0.837561	 3.623192	 5.143785	-4.663256	 176.764000	-10.794710	-34.724770	-4.960765	 172.352500	 85.720340	 179.534000	-2.374289	 30.768660	-0.050883	 2.157476	-13.927260	 179.116500	 4.417708	-50.169870	 6.895943	-176.286500	 81.138220	-177.324900	 2.401073	 23.439800	-0.103885	 6.022299	 0.272407	-1.470391	 10.984580	-3.014383	 0.566551	 13.548070	-5.090098	 1.500582	-91.800420	 77.774990	 179.240100	 36.651360	 69.491910	-40.047490	-8.198195	-4.037299	-20.948000	 4.566805	-12.790280	-5.474998	-3.812334	 37.924440	-2.927599	-2.450526	 36.184240	 0.754587	-1.378229	 35.397820	-2.634230	 0.162893	 5.590611	-3.199484	 3.493278	-13.646130	-0.848981	 89.767490	 79.089270	-179.627400	-36.451330	 70.581460	 39.654480	 4.208727	-7.706302	 29.424260	-9.803025	-13.697440	 9.859900	 6.437017	 35.671460	-0.771858	 2.830251	 35.756010	-7.813440	-2.350882	 35.473990	 5.254307
 6.907910	-0.085457	 1.182010	 179.299900	 0.873428	 3.138188	 5.724269	-4.790914	 177.298700	-10.979360	-34.993260	-4.703716	 174.439600	 85.445600	 177.917700	-2.372712	 31.048150	-0.057143	 2.292229	-16.239700	 179.792700	 5.350083	-54.102940	 8.288937	-175.991600	 81.441270	-177.461900	 2.390829	 26.874480	-0.032429	 6.042561	 0.879783	-0.959612	 10.798740	-3.241273	 0.657690	 13.324140	-5.475199	 1.520152	-91.791230	 78.017450	 179.311100	 36.823470	 69.129260	-40.898410	-8.256947	-4.001639	-21.002120	 4.440559	-12.871890	-5.478411	-3.812334	 37.924440	-2.927599	-2.450526	 36.184240	 0.754587	-1.378229	 35.397820	-2.634230	 0.000451	 5.411984	-3.190427	 3.340545	-13.937920	-1.043470	 89.773540	 78.834010	-179.690300	-36.798150	 70.638490	 40.473410	 4.245586	-7.660237	 28.983370	-9.887291	-13.784690	 9.861577	 6.437017	 35.671460	-0.771858	 2.830251	 35.756010	-7.813440	-2.350882	 35.473990	 5.254307
 6.900069	-0.084367	 1.179794	 178.582300	 0.919013	 2.185062	 6.601706	-4.515799	 178.407100	-11.565190	-34.803840	-4.363067	 176.206500	 85.370520	 176.610300	-2.370322	 31.459300	-0.066409	 2.699591	-21.116120	-178.945300	 8.240738	-61.794770	 12.119120	-173.852700	 83.922740	-179.293000	 2.351688	 34.029060	 0.127344	 6.188339	 1.695373	 0.008536	 10.671220	-3.426095	 0.921815	 13.158170	-5.995762	 1.560572	-91.781340	 78.339280	 179.367700	 36.937340	 68.606320	-42.105510	-8.258005	-3.949108	-20.699340	 4.398970	-13.005560	-5.478997	-3.812334	 37.924440	-2.927599	-2.450526	 36.184240	 0.754587	-1.378229	 35.397820	-2.634230	-0.029067	 5.310816	-3.347413	 3.282254	-14.527430	-1.138770	 89.778600	 78.502480	-179.727600	-37.396580	 70.652380	 41.606530	 4.295745	-7.621392	 28.702960	-9.910985	-13.909180	 9.866566	 6.437017	 35.671460	-0.771858	 2.830251	 35.756010	-7.813440	-2.350882	 35.473990	 5.254307
